<?xml version="1.0" encoding="utf-8"?>
<!-- Generator: Adobe Illustrator 17.0.0, SVG Export Plug-In . SVG Version: 6.00 Build 0)  -->
<!DOCTYPE svg PUBLIC "-//W3C//DTD SVG 1.1//EN" "http://www.w3.org/Graphics/SVG/1.1/DTD/svg11.dtd">
<svg version="1.1" id="Layer_1" xmlns="http://www.w3.org/2000/svg" xmlns:xlink="http://www.w3.org/1999/xlink" x="0px" y="0px"
	 width="650.482px" height="131.598px" viewBox="0 0 650.482 131.598" enable-background="new 0 0 650.482 131.598"
	 xml:space="preserve">
<path d="M420.203,102.918c-2.503,1.449-4.875,1.976-7.114,1.976c-3.821,0-6.061-2.108-6.061-8.696v-29.38h13.57l2.372-16.073
	h-15.942V33.09l-23.451,2.767v14.888h-9.091v16.073h9.091v29.644c0,17.523,7.773,26.877,24.373,26.877
	c6.456,0,14.361-1.844,20.027-5.797L420.203,102.918z M367.635,50.745h-23.452v70.223h23.452V50.745z M355.909,12.932
	c-7.905,0-13.438,5.666-13.438,12.912c0,7.246,5.533,12.911,13.438,12.911s13.439-5.665,13.439-12.911
	C369.348,18.598,363.814,12.932,355.909,12.932 M338.652,50.745h-23.847l-11.331,52.963l-10.54-52.963h-25.428l21.871,70.223h27.799
	L338.652,50.745z M244.054,48.373c-8.564,0-15.151,3.294-21.344,10.277l-1.712-7.905h-20.422v70.223h23.452V73.537
	c3.294-5.27,6.719-8.036,10.54-8.036c3.162,0,5.27,1.712,5.27,8.168v47.299h23.451V69.453
	C263.289,56.015,255.911,48.373,244.054,48.373 M186.611,29.401h-24.374v91.566h24.374V29.401z"/>
<path fill="#0075BF" d="M483.632,75.787c-3.714,23.535-9.54,37.648-17.478,42.336c-8.402-3.249-14.02-12.348-16.85-27.296
	c-2.322-21.399,3.69-33.307,18.034-35.721h1.254c2.413,0,4.711,0.836,6.893,2.507C480.916,61.234,483.632,67.292,483.632,75.787
	 M483.423,117.775c7.242-8.495,10.863-21.029,10.863-37.601c0-9.145-2.298-18.754-6.894-28.828
	c-6.314-6.685-12.998-10.027-20.054-10.027c-5.71-5.014-9.261-7.52-10.654-7.52h-3.133c-9.47,0-15.737,15.249-18.801,45.748
	c-0.65,15.458,2.251,27.818,8.704,37.079c6.452,9.261,12.917,13.892,19.393,13.892C469.323,130.518,476.181,126.27,483.423,117.775
	 M650.482,103.123v-0.627l-2.507-1.88c-4.038,0.418-7.59,1.254-10.653,2.507c-16.155,8.774-25.973,13.16-29.455,13.16h-4.387
	c-4.781,0-9.846-1.375-14.952-5.205l-0.216-0.212c-6.763-6.68-15.055-26.025-19.172-41.137c-3.667-17.965-8.681-26.948-15.04-26.948
	h-2.507c-2.693,0-6.453,2.925-11.28,8.774l-15.668,28.201h-0.626c-4.457-26.506-10.191-39.76-17.199-39.76h-4.387
	c-3.343,0-5.014,1.671-5.014,5.013v3.134c0,2.553,1.463,4.851,4.387,6.893c8.123,10.167,12.186,26.763,12.186,49.787v7.521
	l-0.627,5.64c0,8.356,2.507,12.534,7.52,12.534c3.621,0,6.546-1.671,8.774-5.014c0-7.938,1.671-18.592,5.013-31.961
	c6.546-20.378,11.559-31.659,15.041-33.841h1.88c2.089,3.714,8.684,23.081,14.115,41.092c3.789,8.725,7.949,15.353,12.471,19.937
	l-0.045,0.044c0.216,0.218,0.457,0.397,0.678,0.606c0.573,0.552,1.152,1.067,1.736,1.553c0.043,0.034,0.08,0.076,0.123,0.11
	c3.351,2.759,6.896,4.422,10.627,5.035c4.022,0.972,8.482,1.248,13.436,0.738h3.133
	C620.911,126.822,635.116,118.257,650.482,103.123"/>
<path fill="#0075BF" d="M121.786,20.039L37.839,0.35c-1.728-0.406-3.445-0.511-5.07-0.35c-1.64,0.162-3.188,0.593-4.56,1.259
	c-1.385,0.672-2.59,1.581-3.526,2.689c-0.944,1.117-1.613,2.433-1.917,3.907L0.303,116.669c-0.448,2.169-0.387,4.231,0.108,6.095
	c0.497,1.867,1.427,3.527,2.711,4.89c1.281,1.361,2.908,2.422,4.797,3.099c1.877,0.673,4.005,0.965,6.299,0.799l105.958-7.634
	c1.322-0.095,2.578-0.519,3.715-1.199c1.128-0.675,2.139-1.601,2.984-2.709c0.838-1.099,1.513-2.377,1.977-3.767
	c0.461-1.382,0.716-2.876,0.717-4.422l0.06-81.599c0.001-1.162-0.216-2.314-0.609-3.404c-0.393-1.088-0.961-2.116-1.664-3.032
	c-0.705-0.917-1.546-1.723-2.485-2.365C123.929,20.777,122.887,20.297,121.786,20.039"/>
<path fill="#005693" d="M129.614,50.969L66.919,22.732L50.18,47.658l76.985,71.954c0.704-1.005,1.278-2.143,1.687-3.369
	c0.461-1.381,0.716-2.876,0.717-4.422L129.614,50.969z"/>
<path fill="#004070" d="M87.53,56.776l-31.136,66.151l2.817,5.384l60.965-4.393c1.322-0.095,2.578-0.519,3.715-1.199
	c1.128-0.675,2.139-1.601,2.984-2.709c0.838-1.099,1.513-2.377,1.977-3.768c0.461-1.381,0.716-2.875,0.717-4.421l0.019-26.17
	L87.53,56.776z"/>
<path fill="#FFFFFF" d="M74.589,35.855c0,8.316-6.742,15.058-15.058,15.058c-8.317,0-15.058-6.742-15.058-15.058
	s6.741-15.058,15.058-15.058C67.847,20.797,74.589,27.539,74.589,35.855"/>
<path fill="#FFFFFF" d="M44.554,62.405c4.384-6.576,25.679-13.153,41.337-6.576c15.658,6.576,5.135,63.544,5.135,63.544
	c-0.341,1.84-2.141,3.521-4.001,3.734l-26.592,1.949c-1.86,0.214-3.82-1.079-4.356-2.872C56.077,122.184,40.17,68.981,44.554,62.405
	"/>
</svg>
