<svg width="252" height="33" viewBox="0 0 252 33" fill="none" xmlns="http://www.w3.org/2000/svg">
<path d="M7.536 11.3264C8.608 11.3264 9.536 11.5984 10.32 12.1424C11.12 12.6864 11.728 13.4304 12.144 14.3744C12.56 15.3024 12.768 16.3344 12.768 17.4704C12.768 18.6224 12.568 19.6704 12.168 20.6144C11.768 21.5424 11.176 22.2784 10.392 22.8224C9.608 23.3664 8.656 23.6384 7.536 23.6384C5.984 23.6384 4.784 23.1904 3.936 22.2944V29.2064H1.44V11.5424H3.408L3.696 12.9344C4.688 11.8624 5.968 11.3264 7.536 11.3264ZM7.104 21.5024C8.08 21.5024 8.84 21.1424 9.384 20.4224C9.944 19.7024 10.224 18.7184 10.224 17.4704C10.224 16.2384 9.944 15.2624 9.384 14.5424C8.824 13.8224 8.064 13.4624 7.104 13.4624C6.096 13.4624 5.296 13.8144 4.704 14.5184C4.112 15.2224 3.816 16.2064 3.816 17.4704C3.816 18.7824 4.104 19.7824 4.68 20.4704C5.272 21.1584 6.08 21.5024 7.104 21.5024ZM20.2194 23.6384C18.9874 23.6384 17.9154 23.3664 17.0034 22.8224C16.1074 22.2624 15.4194 21.5184 14.9394 20.5904C14.4754 19.6464 14.2434 18.6064 14.2434 17.4704C14.2434 16.3344 14.4754 15.3024 14.9394 14.3744C15.4194 13.4304 16.1074 12.6864 17.0034 12.1424C17.9154 11.5824 18.9874 11.3024 20.2194 11.3024C21.4354 11.3024 22.4914 11.5824 23.3874 12.1424C24.2994 12.6864 24.9954 13.4304 25.4754 14.3744C25.9554 15.3024 26.1954 16.3344 26.1954 17.4704C26.1954 18.6064 25.9554 19.6464 25.4754 20.5904C24.9954 21.5184 24.2994 22.2624 23.3874 22.8224C22.4914 23.3664 21.4354 23.6384 20.2194 23.6384ZM20.2194 21.5024C21.3074 21.5024 22.1474 21.1424 22.7394 20.4224C23.3314 19.7024 23.6274 18.7184 23.6274 17.4704C23.6274 16.2224 23.3314 15.2384 22.7394 14.5184C22.1474 13.7984 21.3074 13.4384 20.2194 13.4384C19.1314 13.4384 18.2914 13.7984 17.6994 14.5184C17.1074 15.2384 16.8114 16.2224 16.8114 17.4704C16.8114 18.7184 17.1074 19.7024 17.6994 20.4224C18.2914 21.1424 19.1314 21.5024 20.2194 21.5024ZM27.0531 11.5424H29.7651L31.9251 20.4944L34.3251 11.8544H36.6771L39.0531 20.4944L41.2371 11.5424H43.9491L40.4211 23.3984H37.9491L35.5011 15.0704L33.0291 23.3984H30.5811L27.0531 11.5424ZM51.1905 23.6384C49.8305 23.6384 48.6625 23.3584 47.6865 22.7984C46.7265 22.2384 45.9985 21.4864 45.5025 20.5424C45.0225 19.5984 44.7825 18.5424 44.7825 17.3744C44.7825 16.2704 45.0065 15.2624 45.4545 14.3504C45.9185 13.4224 46.5825 12.6864 47.4465 12.1424C48.3265 11.5984 49.3665 11.3264 50.5665 11.3264C52.1345 11.3264 53.3825 11.7904 54.3105 12.7184C55.2385 13.6304 55.7025 14.8544 55.7025 16.3904C55.7025 16.8064 55.6545 17.2544 55.5585 17.7344H47.3505C47.5105 19.0624 47.9505 20.0224 48.6705 20.6144C49.4065 21.2064 50.3345 21.5024 51.4545 21.5024C52.7185 21.5024 53.8785 21.2304 54.9345 20.6864L55.1745 22.7264C53.8945 23.3344 52.5665 23.6384 51.1905 23.6384ZM53.1345 16.0304C53.1345 15.2784 52.9185 14.6624 52.4865 14.1824C52.0545 13.7024 51.4065 13.4624 50.5425 13.4624C48.9265 13.4624 47.9105 14.3184 47.4945 16.0304H53.1345ZM57.8072 11.5424H60.0152L60.1832 13.1984C61.2392 11.9344 62.3432 11.3024 63.4952 11.3024C63.6712 11.3024 63.8552 11.3184 64.0472 11.3504L63.8312 13.9664C63.5752 13.9024 63.2872 13.8704 62.9672 13.8704C62.4232 13.8704 61.9112 13.9984 61.4312 14.2544C60.9512 14.5104 60.6072 14.8064 60.3992 15.1424V23.3984H57.8072V11.5424ZM70.9718 23.6384C69.6118 23.6384 68.4438 23.3584 67.4678 22.7984C66.5078 22.2384 65.7798 21.4864 65.2838 20.5424C64.8038 19.5984 64.5638 18.5424 64.5638 17.3744C64.5638 16.2704 64.7878 15.2624 65.2358 14.3504C65.6998 13.4224 66.3638 12.6864 67.2278 12.1424C68.1078 11.5984 69.1478 11.3264 70.3478 11.3264C71.9158 11.3264 73.1638 11.7904 74.0918 12.7184C75.0198 13.6304 75.4838 14.8544 75.4838 16.3904C75.4838 16.8064 75.4358 17.2544 75.3398 17.7344H67.1318C67.2918 19.0624 67.7318 20.0224 68.4518 20.6144C69.1878 21.2064 70.1158 21.5024 71.2358 21.5024C72.4998 21.5024 73.6598 21.2304 74.7158 20.6864L74.9558 22.7264C73.6758 23.3344 72.3478 23.6384 70.9718 23.6384ZM72.9158 16.0304C72.9158 15.2784 72.6998 14.6624 72.2678 14.1824C71.8358 13.7024 71.1878 13.4624 70.3238 13.4624C68.7078 13.4624 67.6918 14.3184 67.2758 16.0304H72.9158ZM88.2204 5.39844V23.3984H85.9164L85.7724 22.2704C84.8924 23.1824 83.7404 23.6384 82.3164 23.6384C81.2604 23.6384 80.3164 23.3664 79.4844 22.8224C78.6524 22.2784 78.0044 21.5344 77.5404 20.5904C77.0924 19.6464 76.8684 18.6144 76.8684 17.4944C76.8684 16.3904 77.0844 15.3664 77.5164 14.4224C77.9644 13.4784 78.5964 12.7264 79.4124 12.1664C80.2444 11.6064 81.2124 11.3264 82.3164 11.3264C83.7244 11.3264 84.8604 11.7504 85.7244 12.5984V5.39844H88.2204ZM82.7244 21.5024C83.6524 21.5024 84.4124 21.1584 85.0044 20.4704C85.6124 19.7664 85.9164 18.7744 85.9164 17.4944C85.9164 16.2624 85.6124 15.2864 85.0044 14.5664C84.3964 13.8304 83.6364 13.4624 82.7244 13.4624C81.7164 13.4624 80.9164 13.8384 80.3244 14.5904C79.7324 15.3264 79.4364 16.2944 79.4364 17.4944C79.4364 18.6464 79.7324 19.6064 80.3244 20.3744C80.9164 21.1264 81.7164 21.5024 82.7244 21.5024ZM102.432 11.3264C103.52 11.3264 104.464 11.6064 105.264 12.1664C106.08 12.7264 106.696 13.4784 107.112 14.4224C107.544 15.3504 107.76 16.3664 107.76 17.4704C107.76 18.6064 107.536 19.6464 107.088 20.5904C106.64 21.5184 106.008 22.2624 105.192 22.8224C104.392 23.3664 103.472 23.6384 102.432 23.6384C101.712 23.6384 101.048 23.5184 100.44 23.2784C99.8316 23.0384 99.3036 22.6944 98.8556 22.2464L98.7116 23.3984H96.4316V5.39844H98.9276V12.6944C99.3756 12.2624 99.8956 11.9264 100.488 11.6864C101.096 11.4464 101.744 11.3264 102.432 11.3264ZM102.096 21.5024C103.04 21.5024 103.792 21.1264 104.352 20.3744C104.928 19.6064 105.216 18.6384 105.216 17.4704C105.216 16.2864 104.936 15.3264 104.376 14.5904C103.816 13.8384 103.056 13.4624 102.096 13.4624C101.104 13.4624 100.304 13.8144 99.6956 14.5184C99.1036 15.2224 98.8076 16.2064 98.8076 17.4704C98.8076 18.7664 99.1036 19.7664 99.6956 20.4704C100.288 21.1584 101.088 21.5024 102.096 21.5024ZM113.274 22.7504L108.33 11.5424H111.138L114.546 19.8464L117.786 11.5424H120.57L113.226 29.2064H110.586L113.274 22.7504Z" fill="#70709B"/>
<path d="M147.766 19.6379C146.814 20.1096 145.768 20.3643 144.705 20.3839C143.161 20.3839 141.938 19.8821 141.169 18.9319C140.309 17.8686 140.045 16.3042 140.427 14.5298C141.214 10.9213 144.022 8.58958 147.58 8.58958C150.014 8.58958 151.869 9.91558 152.521 10.3804L153.02 10.7369L153.808 6.98532L153.596 6.83301C153.183 6.53692 150.958 5.05859 147.637 5.05859C141.614 5.05859 137.295 8.47211 136.083 14.191C135.484 17.0479 135.913 19.4756 137.325 21.2116C138.758 22.9738 141.176 23.9439 144.135 23.9439C146.551 23.9439 149.253 23.1347 151.549 21.7233L151.696 21.6329L153.428 13.4749H149.047L147.766 19.6379Z" fill="#3A3562"/>
<path d="M172.877 7.92691C171.375 6.0771 168.956 5.05859 166.065 5.05859C160.369 5.05859 156.083 8.55752 154.881 14.1902L154.881 14.1924C154.316 16.9326 154.785 19.3212 156.238 21.1005C157.734 22.934 160.133 23.9439 162.991 23.9439C168.702 23.9439 172.998 20.4336 174.202 14.7824C174.775 12.07 174.317 9.69915 172.877 7.92691ZM169.801 14.4187C169.051 17.9867 166.383 20.3838 163.161 20.3838C161.758 20.3838 160.636 19.914 159.917 19.0244C159.077 17.9866 158.848 16.4414 159.255 14.5575V14.5553C160.01 10.9874 162.678 8.58952 165.895 8.58952C167.301 8.58952 168.424 9.05998 169.143 9.95037C169.983 10.9895 170.21 12.534 169.801 14.4187Z" fill="#3A3562"/>
<path d="M178.844 22.6143L177.29 30.2438H172.551L177.878 5.10198H182.522C182.522 5.10198 185.225 5.05859 187.96 5.05859C191.823 5.05859 194.384 7.78944 194.384 11.8211C194.384 17.4998 190.434 23.8718 183.793 23.8718C181.492 23.8718 179.973 23.2642 178.844 22.6143ZM180.041 17.0215C179.911 17.6714 179.748 18.1625 179.661 18.8558C180.896 19.7336 182.428 20.0874 183.923 19.8401C187.135 19.277 189.61 15.982 189.61 12.6012C189.61 10.6071 188.611 9.22047 186.354 9.22047H181.761C180.933 13.1162 180.646 14.4386 180.041 17.0215Z" fill="#3A3562"/>
<path d="M207.397 23.6149L208.179 20.1474C206.876 22.4442 204.837 24.0055 201.842 24.0055C197.978 24.0055 195.461 21.2746 195.461 17.2429C195.461 11.0879 199.845 5.10547 206.833 5.10547C211.39 5.10547 214.125 7.4034 215.253 8.48622L212.042 23.6149L207.397 23.6149ZM200.235 16.4628C200.235 18.4136 201.233 19.8002 203.491 19.8002C207.528 19.8002 209.264 15.3356 209.871 12.084L210.219 10.22C209.351 9.57008 208.266 9.13716 206.616 9.13716C203.013 9.13718 200.235 12.6047 200.235 16.4628Z" fill="#3A3562"/>
<path d="M225.197 8.87679C223.287 8.87679 222.115 9.4833 222.115 10.437C222.115 12.9085 230.188 12.3009 230.362 17.6758C230.493 21.4472 227.323 24.0055 222.506 24.0055C219.728 24.0055 216.7 22.9027 214.227 21.169L215.154 16.7875C217.188 18.7432 220.683 19.9738 222.463 19.9738C224.416 19.9738 225.631 19.2371 225.631 18.0664C225.631 15.379 217.558 16.0289 217.384 10.7842C217.253 7.31662 220.205 5.10547 224.893 5.10547C227.107 5.10547 230.016 5.75537 231.752 6.66565L230.897 10.4847C229.34 9.52599 226.76 8.87679 225.197 8.87679Z" fill="#3A3562"/>
<path d="M242.428 8.87679C240.518 8.87679 239.346 9.4833 239.346 10.437C239.346 12.9085 247.419 12.3009 247.593 17.6758C247.723 21.4472 244.554 24.0055 239.737 24.0055C236.959 24.0055 233.931 22.9027 231.457 21.169L232.385 16.7875C234.418 18.7432 237.914 19.9738 239.693 19.9738C241.647 19.9738 242.861 19.2371 242.861 18.0664C242.861 15.379 234.788 16.0289 234.614 10.7842C234.484 7.31662 237.436 5.10547 242.124 5.10547C244.338 5.10547 247.246 5.75537 248.982 6.66565L248.128 10.4847C246.571 9.52599 243.99 8.87679 242.428 8.87679Z" fill="#3A3562"/>
</svg>
